<svg xmlns="http://www.w3.org/2000/svg" version="1.1" xmlns:xlink="http://www.w3.org/1999/xlink" xmlns:svgjs="http://svgjs.dev/svgjs" width="256" height="964" preserveAspectRatio="none" viewBox="0 0 256 964"><g mask="url(&quot;#SvgjsMask1000&quot;)" fill="none"><path d="M68.13 1073.51C131.74 951.99 57.51 717.69 179.62 536.32 301.73 354.95 234.45 287.12 291.11 227.84" stroke="rgba(57, 116, 153, 1)" stroke-width="2"></path><path d="M97.71 1034.87C136.02 899.66 54.63 657.6 160.79 476.28 266.95 294.96 228.57 258.67 286.95 216" stroke="rgba(57, 116, 153, 1)" stroke-width="2"></path><path d="M67.12 1148.68C110.21 1030.78 67.25 722.1 139.54 651.83 211.83 581.56 175.75 772.33 211.96 772.33 248.17 772.33 253.52 668.66 284.38 651.83" stroke="rgba(57, 116, 153, 1)" stroke-width="2"></path><path d="M120.99 1076.25C165.66 915.61 128.67 456.11 194.45 413.36 260.23 370.61 225.49 710.47 267.91 798.96" stroke="rgba(57, 116, 153, 1)" stroke-width="2"></path><path d="M123.35 1077.36C152.56 840.94 94.7 228.19 169.79 125.62 244.88 23.05 209.42 483.05 262.67 588.34" stroke="rgba(57, 116, 153, 1)" stroke-width="2"></path></g><defs><mask id="SvgjsMask1000"><rect width="256" height="964" fill="#ffffff"></rect></mask></defs></svg>