<svg width="40" height="37" viewBox="0 0 40 37" fill="none" xmlns="http://www.w3.org/2000/svg">
<path d="M13.3864 14.4112C13.3864 12.3116 15.0815 10.6033 17.1648 10.6033H24.4296C24.1679 9.68061 23.3335 9 22.3352 9H13.1875C11.9808 9 11 9.98844 11 11.2046V23.6302C11 24.8463 11.9808 25.8348 13.1875 25.8348H13.3864V14.4112Z" fill="#292B5C"/>
<path d="M26.3128 12.2065H17.165C15.9583 12.2065 14.9775 13.195 14.9775 14.4111V26.0351C14.9775 27.2512 15.9583 28.2397 17.165 28.2397H26.3128C27.5195 28.2397 28.5003 27.2512 28.5003 26.0351V14.4111C28.5003 13.195 27.5195 12.2065 26.3128 12.2065ZM24.7218 25.8347H18.7559C18.4266 25.8347 18.1594 25.5653 18.1594 25.2335C18.1594 24.9016 18.4266 24.6322 18.7559 24.6322H24.7218C25.0512 24.6322 25.3184 24.9016 25.3184 25.2335C25.3184 25.5653 25.0512 25.8347 24.7218 25.8347ZM24.7218 22.6281H18.7559C18.4266 22.6281 18.1594 22.3587 18.1594 22.0268C18.1594 21.695 18.4266 21.4256 18.7559 21.4256H24.7218C25.0512 21.4256 25.3184 21.695 25.3184 22.0268C25.3184 22.3587 25.0512 22.6281 24.7218 22.6281ZM24.7218 19.8223H18.7559C18.4266 19.8223 18.1594 19.5529 18.1594 19.221C18.1594 18.8892 18.4266 18.6198 18.7559 18.6198H24.7218C25.0512 18.6198 25.3184 18.8892 25.3184 19.221C25.3184 19.5529 25.0512 19.8223 24.7218 19.8223ZM24.7218 16.6157H18.7559C18.4266 16.6157 18.1594 16.3463 18.1594 16.0144C18.1594 15.6825 18.4266 15.4132 18.7559 15.4132H24.7218C25.0512 15.4132 25.3184 15.6825 25.3184 16.0144C25.3184 16.3463 25.0512 16.6157 24.7218 16.6157Z" fill="#292B5C"/>
</svg>
