<svg width="50" height="50" viewBox="0 0 50 50" fill="none" xmlns="http://www.w3.org/2000/svg">
<path d="M45.4626 0.0312805C45.4107 0.0270844 45.3669 0 45.3127 0H22.917C19.4712 0 16.667 2.80418 16.667 6.25V8.33321C16.667 9.48334 17.6001 10.4168 18.7502 10.4168C19.9003 10.4168 20.8334 9.48334 20.8334 8.33321V6.25C20.8334 5.10216 21.7688 4.16679 22.917 4.16679H32.6231L31.9876 4.37927C30.3003 4.96254 29.167 6.55212 29.167 8.33321V39.5832H22.917C21.7688 39.5832 20.8334 38.6478 20.8334 37.5V33.3332C20.8334 32.1835 19.9003 31.25 18.7502 31.25C17.6001 31.25 16.667 32.1835 16.667 33.3332V37.5C16.667 40.9458 19.4712 43.75 22.917 43.75H29.167V45.8332C29.167 48.1312 31.0354 50 33.3334 50C33.7793 50 34.2024 49.9355 34.6605 49.7936L47.1773 45.6207C48.8669 45.0375 50.0002 43.4479 50.0002 41.6668V4.16679C50.0002 1.73759 47.9063 -0.166702 45.4626 0.0312805Z" fill="#3D442E"/>
<path d="M22.3061 19.3603L13.9729 11.0271C13.377 10.4313 12.4813 10.252 11.702 10.5751C10.9249 10.8978 10.4168 11.6585 10.4168 12.5V18.75H2.08321C0.933457 18.75 0 19.6834 0 20.8332C0 21.9833 0.933457 22.9168 2.08321 22.9168H10.4168V29.1668C10.4168 30.0083 10.9249 30.7686 11.702 31.0917C12.4813 31.4144 13.377 31.2355 13.9729 30.6396L22.3061 22.306C23.1209 21.4916 23.1209 20.1752 22.3061 19.3603Z" fill="#3D442E"/>
</svg>
