<?xml version="1.0" encoding="utf-8"?>
<!-- Generator: Adobe Illustrator 27.8.1, SVG Export Plug-In . SVG Version: 6.00 Build 0)  -->
<svg version="1.1" id="Layer_1" xmlns="http://www.w3.org/2000/svg" xmlns:xlink="http://www.w3.org/1999/xlink" x="0px" y="0px"
	 viewBox="0 0 512 512" style="enable-background:new 0 0 512 512;" xml:space="preserve">
<style type="text/css">
	.st0{fill:#231F20;}
</style>
<path class="st0" d="M86.1,6c-22.5-10.7-48.8-6.8-67,10C1.2,32.4-4.7,56.7,3.8,79.3l96.6,176.8L5.6,432.8
	c-8.4,22.6-2.6,46.8,15.3,63.3c11.2,10.2,25.4,15.7,40.3,15.7c9.4,0,19.1-2.2,28.4-6.7L511.4,256L86.1,6z M43.3,63.1
	c-2.4-8.1,2.3-13.7,4.6-15.7c2-1.9,9.2-7.4,19.1-3.2L391,234.7H137.3C137.3,234.7,43.3,63.1,43.3,63.1z M69.6,467.5
	c-10.1,4.9-17.7-0.9-19.8-2.9c-2.2-2.1-7-7.6-4.6-15.7l92.2-171.5h253.8C391.3,277.3,69.6,467.5,69.6,467.5z"/>
</svg>
